**ABCDEFGHIJKLMNOPQRSTUVWXYZabcdefghijklmnopqrstuvwxyz**************************
**PARASOLID !"#$%&'()*+,-./:;<=>?@[\]^_`{|}~0123456789**************************
**PART1;
MC=AMD64;
MC_MODEL=Intel64 Family 6 Model 78 Stepping 3, GenuineIntel;
MC_ID=unknown;
OS=Windows_NT;
OS_RELEASE=unknown;
FRU=Parasolid Version 30.0, build 310,  6- 8-2018;
APPL=SOLIDWORKS 2018-2018211;
SITE=;
USER=unknown;
FORMAT=text;
GUISE=transmit;
KEY=makeProjectedPlanarWire;
FILE=makeProjectedPlanarWire.x_t;
DATE=Sun Nov 11 20:14:06 2018;
**PART2;
SCH=SCH_3000310_30000;
USFLD_SIZE=0;
**PART3;
**END_OF_HEADER*****************************************************************
T51 : TRANSMIT FILE created by modeller version 300031023 SCH_3000310_30000_1300
6205 0 12 33 CCCCCCI4 mesh1006 0 I8 polyline1008 0 CCCCCCCDI5 owner1040 0 CCCCCC
I13 boundary_mesh1006 0 I17 boundary_polyline1008 0 CCCA16 index_map_offset0 0 1
 dA9 index_map82 0 A17 node_id_index_map82 0 A20 schema_embedding_map82 0 A5 chi
ld12 0 A14 lowest_node_id0 0 1 dZ1 66 2 3 0 0 0 0 0 0 1e3 1e-8 0 4 0 1 0 3 1 5 6
 7 8 0 0 9 10 11 0 0 0 0 0 0 81 255 2 2 57 12 1 0 0 0 0 13 0 70 11 CI9 list_type
0 0 1 uI10 notransmit0 0 1 lCCCDCCDI12 finger_index0 0 1 dI12 finger_block1012 0
 CZ3 0 4 T1 0 0 2 20 1 14 14 13 255 5 63 0 1 0 15 0 0 9 15 53 255 6 2 0 15 0 0 1
6 -0 0 0 .021 0 0 1 1 0 0 31 255 7 32 0 10 17 0 0 +0 0 0 0 -1 0 -1 0 0 .021 29 2
55 8 56 0 11 18 0 -.0117561505928025 .00802948199057873 .0154376274797108 19 8 C
CCCCCCA5 owner12 0 Z9 62 0 1 0 0 5 V0 16 255 10 31 0 ?19 0 20 7 0 0 1 18 255 11
 54 0 21 0 22 8 1e-6 1 17 255 21 0 0 0 0 11 23 24 0 25 +18 22 51 0 26 11 27 18 1
e-6 1 17 26 0 28 25 29 22 30 31 32 33 -18 27 48 0 29 22 34 35 1e-6 1 29 18 53 0
 22 35 8 -.01541121606311515 .00807283130582344 .01176111449496598 29 35 50 0 27
 36 18 -.01542412141009795 .00818118544399702 -.011668962398495 29 36 47 0 34 37
 35 -.01178363241465876 .00811120853640895 -.01537381875771565 18 34 45 0 38 27
 39 36 1e-6 1 29 37 44 0 39 40 36 .01193349407201256 .00803975352004072 -.015295
55760899985 18 39 42 0 41 34 42 37 1e-6 1 29 40 41 0 42 43 37 .01555324812868025
 .00811778821012738 -.01154114323727164 18 42 39 0 44 39 45 40 1e-6 1 29 43 38 0
 45 46 40 .01537472135166 .00817153115471034 .01174069938063354 18 45 36 0 47 42
 48 43 1e-6 1 29 46 35 0 48 0 43 .01174384120507742 .00807390726770985 .01542381
97338515 18 48 33 0 23 45 0 46 1e-6 1 17 23 0 28 47 25 48 21 24 49 50 -15 255 28
 5 0 23 15 51 17 47 0 28 44 23 45 50 52 53 54 -17 25 0 28 23 26 11 33 20 55 0 -1
6 24 23 0 1e-6 21 52 0 0 0 0 1 133 255 49 6 0 23 0 56 0 +56 -.011756150585503 .0
080294819966984 .01543762748208655 .01174384120507742 .00807390726770985 .015423
8197338515 .999999999590698 0 17 50 0 0 0 0 48 47 52 0 0 +16 52 24 0 1e-6 50 57
 24 0 0 0 1 16 57 25 0 1e-6 54 58 52 0 0 0 1 17 54 0 0 0 0 45 44 57 0 0 +16 58 2
6 0 1e-6 59 60 57 0 0 0 1 17 59 0 0 0 0 42 41 58 0 0 +16 60 27 0 1e-6 61 62 58 0
 0 0 1 17 61 0 0 0 0 39 38 60 0 0 +16 62 28 0 1e-6 63 31 60 0 0 0 1 17 63 0 0 0
 0 34 29 62 0 0 +16 31 29 0 1e-6 30 20 62 0 0 0 1 17 30 0 0 0 0 27 26 31 0 0 +16
 20 30 0 1e-6 33 10 31 0 0 0 1 17 33 0 0 0 0 22 25 20 0 0 +17 29 0 28 26 38 27 6
3 62 64 30 -17 38 0 28 29 41 34 61 60 65 63 -133 64 16 0 29 66 67 0 +67 -.011783
6324358384 .00811120852078204 -.01537381874972675 -.01542412141009795 .008181185
44399702 -.011668962398495 .99999999597192 0 137 255 66 15 0 1 65 64 68 -6 69 0
 ?137 67 17 0 1 64 32 70 -6 71 0 ?133 32 18 0 26 67 72 0 +72 -.0154241214128258
 .0081811854525544 -.01166896238888962 -.01541121606311515 .00807283130582344 .0
1176111449496598 .999999999546894 0 141 255 70 64 70 70 67 134 255 71 0 0 0 0 0
 0 +73 74 136 255 73 2 25 2 13 5 FFF1 75 76 77 135 255 74 2 0 45 255 50 75 2.653
910134412085 -.589162453164848 2.66054060821232 -.602054669758615 2.662143230855
93 -.60526527664653 2.666712099385625 -.614418298931514 2.669756768250375 -.6215
10372851735 2.673541545002755 -.630326410881415 2.675920809918305 -.638079800585
592 2.678505545170635 -.646502763309288 2.67984205286122 -.655134130059176 2.682
52029085535 -.672430591975284 2.68026493596587 -.690018612465813 2.6780049262803
3 -.707642932630938 2.67093600683522 -.72410819634945 2.663692310155815 -.740980
559523109 2.651711201991835 -.755930989739329 2.639160199597905 -.77159255316617
4 2.62246087717974 -.783786529112466 2.613874757151625 -.790056181166189 2.60416
794055506 -.795367308419867 2.59495961985856 -.800405681456513 2.583723146027135
 -.805186267314033 2.573915893510975 -.809358787393133 2.561707198302155 -.81368
6350148788 2.552224834669525 -.817047522083239 2.53873150563567 -.82138001323096
5 127 255 13 76 3 2 2 2 2 2 2 2 2 2 2 2 3 128 255 13 77 0 .0625 .125 .1875 .25 .
375 .5 .625 .75 .8125 .875 .9375 1 137 72 19 0 1 32 55 78 -6 79 0 ?133 55 20 0 2
5 72 17 0 +17 -.01541121603386455 .00807283124432717 .01176111457550566 -.011756
1505928025 .00802948199057873 .0154376274797108 .999999988824659 0 141 78 32 78
 78 72 134 79 0 0 0 0 0 0 +80 81 136 80 2 61 2 31 5 FFF1 82 83 84 135 81 2 0 45
 122 82 2.65906461514537 .594449858916532 2.645259312630725 .572737949193978 2.6
3511745845979 .555201499325925 2.62477007900163 .53730967224229 2.61348257742917
5 .515241223911548 2.606078847113195 .500766024162149 2.59836566010934 .48494067
237625 2.590100878155655 .467983598499346 2.584101222384275 .454417658064079 2.5
7700958083198 .438382606962379 2.56933713077075 .4182411132127115 2.563467365801
555 .4028319761710065 2.55586727396128 .381704498905897 2.54842691812904 .361021
0713903335 2.543239511682395 .3449776812341425 2.537280631830485 .32654831092329
35 2.53215860101351 .307851153632664 2.527536986682125 .2909806869802195 2.52274
2806805045 .270346835419604 2.520122654177275 .2590698617194785 2.51424941986739
 .232649243074506 2.509044538001185 .2092351935707105 2.506388729040555 .1948413
022398085 2.503314600507745 .178180212268974 2.500551687012415 .1567036320398435
 2.4985132798602 .1408587585690926 2.49598256949799 .1183781189209632 2.49351175
7137755 .0964295612598483 2.4921944927807 .0799885922001986 2.489319228568725 .0
4410199913006985 2.488914888585945 .002908061762531795 2.488523564408285 -.03695
983246312415 2.490909927627335 -.0742125193280268 2.49201279982787 -.09142907396
24406 2.49405815076893 -.1126597887656534 2.49607821874367 -.1336280667241 2.498
093532984305 -.151041708658514 2.500577707151455 -.1725066090582665 2.5034034098
9794 -.18925601165033 2.505863823852845 -.2038401585231935 2.510676625430585 -.2
271724896642905 2.516214710833315 -.2540209770612865 2.51859194169811 -.26498767
16140585 2.52308665622766 -.285722789131447 2.527552414782695 -.302588714585064
 2.532316992377505 -.320583196270918 2.538350267829045 -.339786510456274 2.54358
924348932 -.356461647605537 2.55061962142922 -.3766124171093375 2.55791775159706
5 -.397530629483986 2.56379922282129 -.41323124210652 2.571325417204195 -.433322
450245253 2.57846114531471 -.4494294894626745 2.585376573683325 -.46503925965199
1 2.59776211578527 -.490025200060035 2.61052414241142 -.515770640521355 2.618357
664846195 -.530293509410557 2.62629088119374 -.545001204683584 2.635399128012695
 -.559962637989198 2.64327586948948 -.572901169916692 2.653910134412085 -.589162
453164848 127 31 83 3 2 2 2 2 2 2 2 2 2 2 2 2 2 2 2 2 2 2 2 2 2 2 2 2 2 2 2 2 2
 3 128 31 84 0 .0357142857142857 .0714285714285714 .0982142857142857 .125 .15625
 .1875 .21875 .25 .28125 .3125 .34375 .375 .40625 .4375 .5 .5625 .59375 .625 .65
625 .6875 .71875 .75 .78125 .8125 .84375 .875 .910714285714286 .946428571428571
 .973214285714286 1 137 17 21 0 1 55 7 85 -6 86 0 ?141 85 55 85 85 17 134 86 0 0
 0 0 0 0 +87 88 136 87 2 25 2 13 5 FFF1 89 90 91 135 88 2 0 45 50 89 2.542365627
73902 .825851221124014 2.555980225678505 .821619940531776 2.565532399890595 .818
333226336444 2.577842276224075 .814097641391098 2.587736311729695 .8099902986804
94 2.599066291199045 .805286847944109 2.608358431754955 .800296041380064 2.61813
119408335 .795047092972115 2.626811963560345 .788801280640924 2.64367379631332 .
776669194514908 2.656298466904745 .761055223623076 2.668310471661285 .7461989870
77101 2.675580185932655 .729294712334054 2.68262539394161 .71291248225462 2.6849
4347502435 .69524856743809 2.687252268179865 .67765542717582 2.68465788803805 .6
60421383828744 2.683363074133105 .651820146637414 2.68081172696396 .643389571679
224 2.678468998257805 .635648347669096 2.674728219187815 .626824824718114 2.6717
2344672613 .61973734954727 2.667203879230605 .610569672111124 2.665638848578695
 .607395099276746 2.65906461514537 .594449858916532 127 13 90 3 2 2 2 2 2 2 2 2
 2 2 2 3 128 13 91 0 .0625 .125 .1875 .25 .375 .5 .625 .75 .8125 .875 .9375 1 13
3 65 14 0 38 92 66 0 +66 .01193349406452834 .00803975352613194 -.015295557611637
3 -.01178363241465876 .00811120853640895 -.01537381875771565 .999999999622462 0
 141 68 65 68 68 66 134 69 0 0 0 0 0 0 +93 94 136 93 2 71 2 36 5 FFF1 95 96 97 1
35 94 2 0 45 142 95 2.53873150563567 -.821380013230965 2.48943540644508 -.834552
85992637 2.42965609235022 -.847276780069224 2.377344487090105 -.858411211735971
 2.31577130484183 -.869592155815341 2.282534415892525 -.875627572260376 2.257310
07318572 -.879748325619516 2.228211463806515 -.884501995268689 2.19762537370983
 -.888587968059338 2.18615612005186 -.890120137036391 2.167381757578325 -.892515
595674047 2.143935465898215 -.895507155148052 2.13699554109653 -.896410268682715
 2.12174302724255 -.898395124728391 2.10649560932029 -.90041875490502 2.09122454
268684 -.90244552372754 2.075799339276555 -.904345317427039 2.04635411526473 -.9
07971840174915 2.01361820497306 -.911032992846555 1.993708900569105 -.9128947226
66304 1.95067366994802 -.916547498303376 1.91262841337458 -.919776731290209 1.88
717182610088 -.921610248856764 1.85584157183211 -.923866818873351 1.823078581712
555 -.925539346640639 1.79352311122254 -.927048132770643 1.758520725157435 -.928
256363940213 1.74019173703033 -.92888905380086 1.693701867768475 -.9302778572145
74 1.65182878205092 -.931528742306544 1.62869044989963 -.931824962308943 1.61229
3306770295 -.932034880713838 1.59610641956513 -.931949272843588 1.58289183806092
 -.931879384657893 1.56353352644217 -.9315819999849 1.54727136646606 -.931332178
759687 1.531009345352905 -.931073476134497 1.519584202961075 -.930891720477598 1
.498510168395054 -.930759887007622 1.471141313777618 -.930588674843089 1.4659977
11077216 -.93054142103722 1.447566846773688 -.93037209837866 1.433492512865606 -
.930032380205617 1.407065034360382 -.929394488936689 1.368773183149562 -.9273470
46055697 1.349414789923676 -.926311964095841 1.304470857455602 -.923774313202568
 1.26645507889855 -.921627843832485 1.240507367220268 -.919884007182967 1.206976
992316564 -.917630571606292 1.177099576182216 -.915045797451868 1.1496670767638
 -.912672539497795 1.11441638049789 -.908963403404086 1.086441409162042 -.906019
831024138 1.052433345660672 -.902270934952985 1.015709732232612 -.89822268886295
3 .991174787041272 -.894914716329306 .967844191124044 -.891769122569633 .9310866
02229061 -.885940158250106 .883000172644864 -.878314683056384 .871870685829689 -
.876521814004825 .837951123792748 -.871057650739407 .81359079346722 -.8664129857
52935 .792214001355932 -.862337177399125 .756716112476461 -.854838657172701 .716
180759340346 -.846276030634304 .700780614642911 -.842906599952873 .6706070966683
79 -.836304871253074 .646018350588848 -.830158813319052 .619422872059015 -.82351
1164378408 .592865180263816 -.81592524912608 127 36 96 3 2 2 2 2 2 2 2 2 2 2 2 2
 2 2 2 2 2 2 2 2 2 2 2 2 2 2 2 2 2 2 2 2 2 2 3 128 36 97 0 .0625 .125 .15625 .18
75 .203125 .21875 .234375 .25 .28125 .3125 .34375 .375 .40625 .4375 .46875 .4843
75 .5 .515625 .53125 .546875 .5625 .59375 .625 .65625 .6875 .71875 .75 .78125 .8
125 .84375 .875 .90625 .9375 .96875 1 137 92 13 0 1 98 65 99 -6 100 0 ?133 98 12
 0 41 101 92 0 +92 .01555324810306795 .00811778815321194 -.01154114331182072 .01
193349407201256 .00803975352004072 -.01529555760899985 .999999989853548 0 141 99
 98 99 99 92 134 100 0 0 0 0 0 0 +102 103 136 102 2 23 2 12 5 FFF1 104 105 106 1
35 103 2 0 45 46 104 .592865180263816 -.81592524912608 .579294702414096 -.811524
103200292 .569876005061819 -.808142532611713 .557664134162147 -.803758136137198
 .54792119791128 -.799523865054441 .536749293341457 -.794668565662011 .527685664
337609 -.789531038488937 .518170456728261 -.784137543495959 .509812386135551 -.7
77693471480636 .494054731112531 -.765544320233991 .481558284369787 -.74922225626
1585 .469644090420713 -.733660693857506 .46244353277256 -.717129982930506 .44791
8440712544 -.683783940892526 .454328669158448 -.64796555656334 .455868761914862
 -.639359992078805 .458621483109173 -.630844703969146 .461133949861131 -.6230726
20729089 .465008010985738 -.614235166418075 .468117089049893 -.607142780816099 .
472739864937277 -.597970866571657 .474264240074471 -.594946398508462 .4810414120
47005 -.581859330823484 127 12 105 3 2 2 2 2 2 2 2 2 2 2 3 128 12 106 0 .0625 .1
25 .1875 .25 .375 .5 .75 .8125 .875 .9375 1 17 41 0 28 38 44 39 59 58 98 61 -137
 101 11 0 1 107 98 108 -6 109 0 ?133 107 10 0 44 110 101 0 +101 .015374721354414
85 .0081715311629698 .01174069937127736 .01555324812868025 .00811778821012738 -.
01154114323727164 .999999999540095 0 141 108 107 108 108 101 134 109 0 0 0 0 0 0
 +111 112 136 111 2 69 2 35 5 FFF1 113 114 115 135 112 2 0 45 138 113 .481041412
047005 -.581859330823484 .493204027625287 -.563396428271787 .502571043997208 -.5
48075358470303 .512643858120244 -.53159985739837 .522439465362109 -.513766317278
273 .531020698196828 -.498143624753015 .54085014146765 -.478976992566489 .551079
218011352 -.45903110729922 .557940965442141 -.4437980469133385 .564433828999014
 -.4293839077109325 .572701117114527 -.407883068001045 .576177648419152 -.398841
609510336 .579613805683152 -.389784730091447 .580459235511113 -.387556381555368
 .58309603235492 -.38074851468452 .586502584796238 -.3719532388696525 .586592277
049558 -.3717210207260305 .590765053499667 -.360917474543159 .59343104001748 -.3
536337058492805 .597041752456773 -.343768841922854 .599741509120616 -.3354070366
669625 .60419413659289 -.321616162734208 .610324679893815 -.2983945975405015 .61
5234895135837 -.279795449347465 .620150846012084 -.2611978163203395 .62548482951
7876 -.2410187156111035 .629080595943308 -.2238420438217885 .632506321161101 -.2
0747764448532 .636054247262059 -.186088914514009 .639315623763285 -.166427653446
4 .641892828613902 -.1481589096597032 .647615727884388 -.1075916336573456 .65009
9062859193 -.0718831924893094 .651315894642134 -.0543860901759372 .6520878571572
08 -.03357467651487205 .652852173479465 -.0129693973208879 .65307179329328 .0047
7931828336227 .653318262789637 .0246979081408527 .652822588103196 .0431341444855
3465 .652360746675618 .0603119789514141 .651171735824419 .0814621971353539 .6499
68986194382 .1028568017937288 .648533804466082 .1197387780608794 .64694944449420
1 .1383755311051022 .644461457224425 .1578778464683605 .642393270745219 .1740895
150076195 .639124139257654 .195886286792149 .635799148651903 .218055496472128 .6
32779131353276 .2337466077766075 .629657913137087 .2499635289373125 .62437954315
2114 .2712214617688665 .621213611223663 .283971831385978 .614916394625608 .30851
22743944405 .609095217075482 .331197578875655 .6046085276559 .345603165306316 .6
00129731628718 .359983408118152 .59198981762977 .3820998944995985 .5826550456255
41 .4074628599967905 .578548698065743 .418422752265116 .570675359606232 .4394367
896917355 .56410930359215 .454471487878405 .557066343344664 .470598182721482 .54
7457298281966 .489852962659442 .538392507951103 .508017155028783 .52929643224351
6 .524785286489189 .519794895503489 .542300863783667 .509660019949341 .559250540
913001 .500230594917506 .575020414844945 .488522146701509 .593276878840585 127 3
5 114 3 2 2 2 2 2 2 2 2 2 2 2 2 2 2 2 2 2 2 2 2 2 2 2 2 2 2 2 2 2 2 2 2 2 3 128
 35 115 0 .03125 .0625 .09375 .125 .15625 .171875 .1796875 .1875 .203125 .21875
 .25 .28125 .3125 .34375 .375 .4375 .46875 .5 .53125 .5625 .59375 .625 .65625 .6
875 .71875 .75 .78125 .8125 .84375 .875 .90625 .9375 .96875 1 17 44 0 28 41 47 4
2 54 57 107 59 -137 110 9 0 1 53 107 116 -6 117 0 ?133 53 8 0 47 56 110 0 +110 .
01174384120507742 .00807390726770985 .0154238197338515 .01537472135166 .00817153
115471034 .01174069938063354 1 0 141 116 53 116 116 110 134 117 0 0 0 0 0 0 +118
 119 136 118 2 25 2 13 5 FFF1 120 121 122 135 119 2 0 45 50 120 .488522146701509
 .593276878840585 .481719187607843 .606261099143245 .480174651584382 .6092924504
34739 .475532138225821 .618403982086633 .472421600350556 .625453462723088 .46854
9825065595 .634228152501689 .466069786261235 .641945999203269 .463362754748815 .
650370244095114 .461900461303663 .658936956648334 .458932997892803 .676321569933
256 .461004919116131 .693731405155409 .463079239641496 .711161401111785 .4702269
20424399 .727725250042229 .477430475180066 .744418579859149 .489414600836745 .75
9525527658195 .501979012075386 .775363971792175 .518405422020305 .78746945830472
8 .526942537234643 .793760908075543 .536628898235738 .799057223224334 .545825860
969964 .804085944851232 .557095697008731 .808839057966186 .56692452698965 .81298
4419134376 .579196535381924 .817272137111511 .588698289572898 .820591955755427 .
602288296672661 .824881851119198 127 13 121 3 2 2 2 2 2 2 2 2 2 2 2 3 128 13 122
 0 .0625 .125 .1875 .25 .375 .5 .625 .75 .8125 .875 .9375 1 137 56 7 0 1 49 53 1
23 -6 124 0 ?141 123 49 123 123 56 134 124 0 0 0 0 0 0 +125 126 136 125 2 65 2 3
3 5 FFF1 127 128 129 135 126 2 0 45 130 127 .602288296672661 .824881851119198 .6
50662656807546 .837609739114832 .710956536019219 .850316937053806 .7370504212147
61 .855816337134079 .767090979791399 .86170725201636 .798078069630436 .867783780
461253 .824263251087504 .872418749179431 .870128772559448 .880537282083774 .9418
58207878869 .890997401310504 .975514577204364 .895905423161169 1.002018487870446
 .899234955760126 1.02918143728373 .902647279575081 1.063162600634376 .906221069
629095 1.12723868801194 .912959934964783 1.187559154845754 .917970801725751 1.22
1474039537166 .920788136824805 1.250683262925712 .922678018398914 1.274811801821
97 .92423917189018 1.314382483075242 .92620309316897 1.344015091352594 .92767378
0761368 1.3463455041805 .927792115924934 1.362354873767656 .928605049730478 1.37
8362732738072 .929447205971092 1.41547823198649 .931399812461024 1.4427259498134
 .931983299769306 1.456542601556176 .932279171922199 1.475043155569902 .93239313
9673005 1.491200083898762 .93249267014005 1.50735728877843 .93252381198034 1.521
578927931455 .932551223158107 1.539653110847885 .932795566106472 1.5558150129611
7 .933014057134907 1.571975956959075 .933294605429293 1.607420300832595 .9339099
06752075 1.636727052066565 .933466959518851 1.65968360794311 .933119990220593 1.
701304477540765 .931735412926898 1.745337569849225 .930270589621407 1.7656741151
6893 .929523593134137 1.802026706504615 .928188299572522 1.82978887335942 .92683
5327642332 1.863876817816105 .925174072876124 1.893479021106595 .923075435727914
 1.91740625346832 .921379123524547 1.95656617643839 .918066579762013 2.002784357
89219 .914156976854788 2.019114262555855 .912658259614139 2.051559019710885 .909
680562075885 2.080929557033085 .906119591266704 2.09308667920705 .90464562581928
2 2.111452929854215 .902281070597497 2.13974554773225 .898638549397787 2.1417896
4537827 .898379084405905 2.14954581544992 .897394564606378 2.17202260127069 .894
607165449613 2.190901863484885 .892265903669757 2.20212146730507 .89081012454880
9 2.232479002969935 .886871138173476 2.261545313986115 .882251193022574 2.286524
362167205 .878280897911712 2.3197906779341 .872411727685986 2.38137479302648 .86
1546453117845 2.433390388272545 .850867892698433 2.49318554370552 .8385922246596
75 2.54236562773902 .825851221124014 127 33 128 3 2 2 2 2 2 2 2 2 2 2 2 2 2 2 2
 2 2 2 2 2 2 2 2 2 2 2 2 2 2 2 2 3 128 33 129 0 .0625 .09375 .125 .1875 .21875 .
25 .3125 .34375 .375 .390625 .40625 .4375 .453125 .46875 .484375 .5 .53125 .5625
 .59375 .625 .65625 .6875 .71875 .75 .765625 .78125 .796875 .8125 .84375 .875 .9
375 1 14 255 15 1 130 ?0 0 28 5 6 +0 0 0 0 5 15 51 22 0 19 15 0 17 19 0 51 19 19
 0 131 10 0 0 +17 131 0 0 0 0 0 19 10 0 0 -81 1 130 66 132 15 0 0 0 0 133 80 255
 1 132 134 135 9000 1 1 1 1 1 1 1 1 0 FFFFTFTFFFFFFF1 82 255 1 133 -1296170819 7
9 255 14 135 SWEntUnchanged141 16 56 136 137 6 141 136 17 138 16 6 141 137 110 1
6 139 6 141 139 101 137 140 6 141 140 92 139 141 6 141 141 66 140 142 6 141 142
 67 141 138 6 141 138 72 142 136 6 74 4 CI16 index_map_offset0 0 1 dCCZ20 14 2 0
 0 2 130 0 0 0 0 0 0 0 0 0 0 0 0 0 0 0 0 0 0 80 2 12 143 144 8004 0 0 0 0 3 5 0
 0 0 FFTFFFFFFFFFFF2 3 83 255 1 13 1 79 16 144 SDL/TYSA_DENSITY1 0 
